<svg id="Layer_1" data-name="Layer 1" xmlns="http://www.w3.org/2000/svg" viewBox="0 0 340.37 417.05"><defs><style>.cls-1{fill:#f53;}</style></defs><title>PeaceCollective_Logo</title><path class="cls-1" d="M277.44,327v68.12c-6.81,0-13.09.11-19.36-.12-1,0-2.12-1.54-2.73-2.63-.43-.75-.1-1.95-.1-2.95q0-84-.09-167.95c0-4.71,1.15-6.23,6-6.18,24.66.24,49.32,0,74,.24a12.68,12.68,0,0,1,7.77,3.19c7.32,6.79,14.38,13.89,21.2,21.18a12,12,0,0,1,3.17,7.29q.4,24,0,48a12,12,0,0,1-3.11,7.3c-6.82,7.3-13.87,14.4-21.18,21.2a12.8,12.8,0,0,1-7.76,3.19c-17.16.28-34.32.14-51.49.14Zm.08-55.27h0c0,9.83.21,19.67-.09,29.49-.13,4.29.92,5.86,5.49,5.72,10.82-.33,21.72-.87,32.46.1,11.12,1,19.6-2,26.36-10.92,2.1-2.79,3.82-5.11,3.68-8.77-.23-6.49,0-13,0-19.49,0-16.43,0-16.49-12-27.69a10,10,0,0,0-6.06-2.57c-15.16-.22-30.33,0-45.49-.18-3.26,0-4.37,1.09-4.32,4.33C277.62,251.77,277.52,261.77,277.52,271.76Z" transform="translate(-255.13 -215.32)"/><path class="cls-1" d="M572.9,512.34c0-7.15-.18-13.46.08-19.75.14-3.62-1.28-6-3.48-8.83-5.88-7.43-12.94-10.42-22.48-9.4-7.75.83-15.65.17-23.48.17a24,24,0,0,0-3.5.06c-4.26.62-17.76,15.85-17.77,20.16q0,47.25,0,94.5c0,5.63,15.57,20.69,21.25,20.71,10.16,0,20.34.26,30.49-.12,2.82-.11,5.89-1.58,8.3-3.23,8.3-5.66,12.36-13.28,10.71-23.73-.73-4.68-.12-9.58-.12-14.74H595c0,5,0,10.12,0,15.22-.07,7.32,1.74,15.44-.86,21.73s-10.19,10.32-14.61,16.1c-7,9.12-15.62,11.87-26.82,11-12.26-.92-24.65-.05-37-.36a12.09,12.09,0,0,1-7.31-3.09q-13.06-12.35-25.53-25.35a11,11,0,0,1-2.81-6.88q-.26-55,0-110a12.52,12.52,0,0,1,3.29-7.7c7.65-8.12,15.57-16,23.67-23.68a11.23,11.23,0,0,1,6.94-2.84q26-.36,52,0a10.55,10.55,0,0,1,6.51,2.7q10.15,9.63,19.68,19.89a10.88,10.88,0,0,1,2.71,6.48c.29,8.66-.05,17.34.16,26,.09,3.6-.89,5.16-4.73,5C584.68,512.16,579.06,512.34,572.9,512.34Z" transform="translate(-255.13 -215.32)"/><path class="cls-1" d="M256.93,571.21A3258,3258,0,0,1,578.05,229.74,3265,3265,0,0,1,256.93,571.21Z" transform="translate(-255.13 -215.32)"/></svg>