<svg id="Layer_1" data-name="Layer 1" xmlns="http://www.w3.org/2000/svg" viewBox="0 0 142.85 182.3"><defs><style>.cls-1{fill:#f53;}</style></defs><title>UnitedWay_Logo</title><path class="cls-1" d="M125.8,128.36a5,5,0,0,1-7.16,0,5.06,5.06,0,0,1,7.16-7.15,4.82,4.82,0,0,1,1.48,3.56,4.89,4.89,0,0,1-1.48,3.59m-6.66-6.65a4.18,4.18,0,0,0-1.25,3.07,4.23,4.23,0,0,0,1.25,3.1,4.33,4.33,0,0,0,6.15,0,4.21,4.21,0,0,0,1.27-3.1,4.33,4.33,0,0,0-7.42-3.07m3,.28a4.41,4.41,0,0,1,1.52.19,1.4,1.4,0,0,1,.85,1.42,1.24,1.24,0,0,1-.53,1.09,2.2,2.2,0,0,1-.81.26,1.31,1.31,0,0,1,.95.55,1.54,1.54,0,0,1,.31.86v.41c0,.13,0,.27,0,.41a1.76,1.76,0,0,0,0,.28l0,.07h-.9s0,0,0,0,0,0,0-.06l0-.18v-.44c0-.64-.16-1.07-.52-1.27a2.3,2.3,0,0,0-1.09-.18h-.76v2.18h-1V122Zm1,.87a2.45,2.45,0,0,0-1.18-.21h-.83v2H122a2.71,2.71,0,0,0,.93-.13,1,1,0,0,0,.2-1.68"/><path class="cls-1" d="M118.92,92.27a5.59,5.59,0,0,0-7.45-8.33L90.79,102.43c6.33,5.8,5.67,9.87,5.67,9.87Z"/><path class="cls-1" d="M79.67,90.73l-4.38-4.62L89.18,73.58a3.2,3.2,0,0,1,4.33,4.72Z"/><path class="cls-1" d="M88.43,100l-6.36-6.74L98.48,78.33a4.64,4.64,0,0,1,6.35,6.76Z"/><path class="cls-1" d="M42.87,69.81c6.12.49,9.65.89,14.05,3.45,3.6,2.09,6.81,5.45,9.86,8.74l.12.13,2.52,2.73,21.84,23a7.16,7.16,0,0,1-10.49,9.73L61.18,97l0,0a1.71,1.71,0,0,0-2.95,1.18,1.71,1.71,0,0,0,.46,1.18l0,.06,17.94,18.94a17.9,17.9,0,0,0,6.23,4.42c2.19.79,6.33.45,8.15-.85a32.85,32.85,0,0,0,3.07-2.51l32.33-29.15.13-.09a7.08,7.08,0,0,1,8.92,11l-22.64,20.4c-4.92,4.17-9.87,10.12-15.88,13.15-16.43,8.27-31.53,4-43.48-4.83C47.62,125.41,41.75,120.6,34,118c-3.74-1.25-13.47-1.52-21.48-1.51H0v-47A77.85,77.85,0,0,1,21,21C33.3,8.05,50.18,0,68.78,0,88,0,105.3,8.56,117.71,22.19a78.55,78.55,0,0,1,20,53c0,2.17,0,3.8-.18,5.92a5.22,5.22,0,0,1-5.19,4.82l-.41,0a5.21,5.21,0,0,1-4.8-5.6c.15-1.86.14-3.22.14-5.12a68.16,68.16,0,0,0-17.3-46C99.32,17.54,84.8,10.44,68.78,10.43c-15.55,0-29.66,6.68-40.25,17.75A67.5,67.5,0,0,0,10.45,69.8h4a58.54,58.54,0,0,1,15.8-37.86,52.49,52.49,0,0,1,77.07,0,58.65,58.65,0,0,1,15.86,40.42c0,1.78-.07,3.55-.23,5.28a3.87,3.87,0,0,1-7.71-.67c.14-1.52.21-3,.21-4.61a50.88,50.88,0,0,0-13.75-35.1,44.75,44.75,0,0,0-65.83,0A50.69,50.69,0,0,0,22.17,69.8h4.69A44,44,0,0,1,39.08,40a40.91,40.91,0,0,1,59.33,0,44,44,0,0,1,12.23,30.63c0,1.32-.06,2.63-.17,3.93a3.06,3.06,0,1,1-6.09-.53c.09-1.12.13-2.25.13-3.4A37.85,37.85,0,0,0,94,44.25a34.76,34.76,0,0,0-50.52,0A37.92,37.92,0,0,0,33,69.8h4.86c.37-17.32,14-31.36,30.93-31.37,17.16,0,31.05,14.83,31.08,32.46a2.52,2.52,0,1,1-5,0A28.64,28.64,0,0,0,87,51.34a25.13,25.13,0,0,0-36.55,0,27.48,27.48,0,0,0-7.61,18.43Z"/><path class="cls-1" d="M70.79,58.49a2.55,2.55,0,0,1-3.64,0l-6.21-5.55a2.7,2.7,0,0,0-3.59,4l5.84,5.2s2.88,2.33,2.88,8.63l0,4.15v1.5a2.68,2.68,0,0,0,2.68,2.7h.39a2.68,2.68,0,0,0,2.69-2.7v-1.5l0-4.15c0-6.29,2.86-8.62,2.86-8.62L80.63,57a2.7,2.7,0,1,0-3.6-4Z"/><path class="cls-1" d="M72.62,52.06A3.63,3.63,0,1,1,69,48.43a3.63,3.63,0,0,1,3.62,3.63"/><polygon class="cls-1" points="115.47 156.28 109.84 175.51 105.91 175.51 101.48 162.47 101.42 162.47 97.02 175.51 93.22 175.51 87.52 156.28 92.3 156.28 95.29 168.32 95.35 168.32 99.53 156.29 103.64 156.29 107.81 168.66 107.86 168.66 111.02 156.28 115.47 156.28"/><path class="cls-1" d="M16.9,167.77C16.9,172.5,14,176,8.46,176S0,172.5,0,167.77v-11.5H4.42V167.6a4,4,0,1,0,8.07,0V156.27H16.9Z"/><path class="cls-1" d="M18.93,161.74H23v1.87h.06a4.44,4.44,0,0,1,4-2.21c4.3,0,5.09,2.83,5.09,6.52v7.58H27.94v-6.74c0-1.58,0-3.62-2.21-3.62s-2.55,1.73-2.55,3.51v6.85H18.93Z"/><path class="cls-1" d="M38.69,175.5H34.44V161.74h7.7v-5.47h4.25v5.47h3.73v3.4H46.39v4.59c0,1.47.17,2.54,2,2.54a3,3,0,0,0,1.72-.39v3.54a8.76,8.76,0,0,1-3,.42c-2.83,0-5-1.16-5-4.16v-6.54H38.68Z"/><path class="cls-1" d="M64.31,173.12a7.46,7.46,0,0,1-5.8,2.72c-4.25,0-7.65-2.83-7.65-7.22s3.4-7.22,7.65-7.22c4,0,6.45,2.83,6.45,7.22V170H55.11a3.16,3.16,0,0,0,3.2,2.66,3.61,3.61,0,0,0,3-1.67Zm-3.59-6.05a2.56,2.56,0,0,0-2.61-2.61,2.83,2.83,0,0,0-3,2.61Z"/><path class="cls-1" d="M81,175.5H77.08v-1.81H77a5.33,5.33,0,0,1-4.22,2.15c-4.07,0-6.76-2.94-6.76-7.11,0-3.82,2.37-7.33,6.28-7.33a5.15,5.15,0,0,1,4.36,1.81h.06v-6.93H81Zm-7.31-10.36a3.48,3.48,0,1,0,3.4,3.48,3.22,3.22,0,0,0-3.4-3.48"/><path class="cls-1" d="M123.19,173.77h-.06a4.94,4.94,0,0,1-4.36,2.07c-2.57,0-4.89-1.47-4.89-4.24,0-4.76,5.77-4.85,9.31-4.85a2.53,2.53,0,0,0-2.72-2.46,4.51,4.51,0,0,0-3.45,1.64l-2.27-2.32a8.9,8.9,0,0,1,6.06-2.2c5,0,6.29,2.51,6.29,7.1v7h-3.91Zm-1-4.3c-1.3,0-4.19.12-4.19,2,0,1,1.08,1.5,2,1.5,1.67,0,3.23-.88,3.23-2.58v-.91Z"/><path class="cls-1" d="M136.62,177.74c-1.14,2.92-1.78,4.56-5.83,4.56a10.08,10.08,0,0,1-3.18-.51l.57-3.49a4.71,4.71,0,0,0,2,.43c1.93,0,2.24-.82,2.84-2.32l.31-.79-6-13.88h4.59l3.54,9.09h.06l3-9.09h4.36Z"/><rect class="cls-1" x="34.45" y="156.27" width="4.25" height="3.5"/></svg>